# xmcd
#
# Track frame offsets:
#  150
#  10617
#  22395
#  35322
#  47220
#  58687
#  74662
#  86652
#  100877
#  113262
#  126955
#  138227
#  149277
#  161542
#  173220
#  184627
#
# Disc length: 2616 seconds
#
# Revision: 0
# Processed by: cddbd v1.5.1PL2 Copyright (c) Steve Scherf et al.
# Submitted via: Collectorz.com_Music_Collector 6.10
#
DISCID=da0a3610
DTITLE=Hooker, John Lee - Don't Turn Me From Your Door
DYEAR=1992
DGENRE=Blues
TTITLE0=John Lee Hooker - Stuttering Blues
TTITLE1=John Lee Hooker - Pouring Down Rain
TTITLE2=John Lee Hooker - You Lost A Good Man
TTITLE3=John Lee Hooker - Love My Baby
TTITLE4=John Lee Hooker - Misbelieving Baby
TTITLE5=Moore - Brown - Williams - Drifting Blues
TTITLE6=John Lee Hooker - Wobbling Baby
TTITLE7=John Lee Hooker - Goin' South
TTITLE8=John Lee Hooker - Don't Turn Me From Your Door
TTITLE9=John Lee Hooker - My Baby Don't Love Me
TTITLE10=John Lee Hooker - I Ain't Got Nobody
TTITLE11=John Lee Hooker - Real Real Gone
TTITLE12=John Lee Hooker - Guitar Lovin' Man
TTITLE13=John Lee Hooker - Talk About Your Baby
TTITLE14=John Lee Hooker - Blue Monday
TTITLE15=John Lee Hooker - My Baby Put Me Down
EXTD=
EXTT0=
EXTT1=
EXTT2=
EXTT3=
EXTT4=
EXTT5=
EXTT6=
EXTT7=
EXTT8=
EXTT9=
EXTT10=
EXTT11=
EXTT12=
EXTT13=
EXTT14=
EXTT15=
PLAYORDER=
